<?xml version="1.0" encoding="UTF-8" standalone="no"?>
<svg
   xmlns:dc="http://purl.org/dc/elements/1.1/"
   xmlns:cc="http://creativecommons.org/ns#"
   xmlns:rdf="http://www.w3.org/1999/02/22-rdf-syntax-ns#"
   xmlns:svg="http://www.w3.org/2000/svg"
   xmlns="http://www.w3.org/2000/svg"
   xmlns:sodipodi="http://sodipodi.sourceforge.net/DTD/sodipodi-0.dtd"
   xmlns:inkscape="http://www.inkscape.org/namespaces/inkscape"
   role="img"
   viewBox="0 0 24 24"
   version="1.1"
   id="svg973"
   sodipodi:docname="logo.svg"
   inkscape:version="0.92.3 (unknown)">
  <metadata
     id="metadata979">
    <rdf:RDF>
      <cc:Work
         rdf:about="">
        <dc:format>image/svg+xml</dc:format>
        <dc:type
           rdf:resource="http://purl.org/dc/dcmitype/StillImage" />
        <dc:title>Evernote icon</dc:title>
      </cc:Work>
    </rdf:RDF>
  </metadata>
  <defs
     id="defs977" />
  <sodipodi:namedview
     pagecolor="#ffffff"
     bordercolor="#666666"
     borderopacity="1"
     objecttolerance="10"
     gridtolerance="10"
     guidetolerance="10"
     inkscape:pageopacity="0"
     inkscape:pageshadow="2"
     inkscape:window-width="1871"
     inkscape:window-height="1025"
     id="namedview975"
     showgrid="false"
     inkscape:zoom="9"
     inkscape:cx="42.785781"
     inkscape:cy="16.848915"
     inkscape:window-x="49"
     inkscape:window-y="27"
     inkscape:window-maximized="1"
     inkscape:current-layer="svg973" />
  <title
     id="title969">Evernote icon</title>
  <path
     style="fill:#3396d9;fill-opacity:1;stroke-width:0.82522786"
     d="M 7.3942276,1.3529546 C 0.79316491,1.5866883 1.6236007,7.084818 1.5193142,8.8170764 c 0.015679,0.1972295 0.032687,0.4109119 0.082201,0.6898389 0.1138814,0.7715877 0.3104017,1.5929217 0.4077786,2.0533997 0.4233419,1.888121 1.2378418,2.561107 1.2378418,2.561106 1.2048327,1.247746 2.9472627,1.772835 4.5919418,1.674633 0.049514,0 0.2117484,-0.01534 0.3578137,-0.04835 0.1468906,-0.03301 0.2781663,-0.08265 0.3755432,-0.132166 1.0100789,-0.623872 1.5134547,-2.922144 1.5134547,-2.922144 0.114707,1.526671 1.825417,2.067584 2.509531,2.150105 0.163756,0.02132 0.326658,0.04873 0.488368,0.0822 0.195579,0.04951 0.406335,0.09838 0.536721,0.164401 0.832468,0.372502 1.474266,1.187347 1.540854,2.122704 0.327023,1.445631 0.370409,2.336566 0.767205,3.001122 0.699691,1.049184 1.1931,1.311028 2.370918,1.537632 1.177817,0.226604 2.268467,-0.309232 2.622354,-0.588297 0.589474,-0.435818 0.902063,-1.010567 1.023476,-1.366784 0.124917,-0.345945 0.19062,-0.715881 0.191801,-1.089559 -0.0015,-1.648565 -1.182397,-2.98439 -2.640084,-2.988227 -0.433747,0 -0.780098,0.395174 -0.780098,0.889698 -0.0019,0.320682 0.149986,0.618416 0.398107,0.773652 0.0871,0.0597 0.209466,0.09937 0.296567,0.119271 0.08622,0.0199 0.416453,0.05876 0.572179,0.215977 0.174203,0.159203 0.312684,0.417065 0.312684,0.694675 0,0.296515 -0.06918,0.711032 -0.243377,0.90904 -0.312334,0.356217 -0.414894,0.932501 -1.594043,0.462579 -0.967051,-0.601418 -0.650143,-1.986445 -0.536721,-2.585284 0.06318,-0.260396 0.120229,-0.531228 0.161178,-0.82684 0.04869,0 0.650266,-5.189355 -0.343309,-10.5426081 C 17.317684,3.5792797 15.102566,3.4319637 14.207194,3.2677433 13.262307,3.103523 11.388202,2.7745407 11.388203,2.7745407 c -3e-6,0 -0.210421,-1.0177123 -1.203995,-1.2636302 C 9.9886285,1.4613965 9.8745794,1.4274855 9.7441934,1.4109805 9.565119,1.3944755 9.3700428,1.3787445 9.2074729,1.3787445 H 8.8158115 C 8.3072022,1.3448518 7.8342984,1.3373724 7.3942276,1.3529546 Z m 7.3110034,8.2216552 c 0.09957,-0.012881 0.192843,-0.00893 0.274001,0.00322 0.537224,0.066018 0.920774,0.6351292 0.970287,1.0782762 0,0.0817 0.01689,0.18097 -0.01612,0.230484 -0.03218,0.04951 -0.06531,0.06608 -0.09832,0.06608 -0.211258,0.03301 -0.504703,-0.292182 -0.976733,-0.341696 -0.472856,-0.04951 -0.82951,0.194122 -1.025089,0.0951 -0.03218,-0.01651 -0.06569,-0.03269 -0.0822,-0.0822 -0.0165,-0.04869 0.01534,-0.147961 0.04835,-0.230484 0.252359,-0.588955 0.607103,-0.7801375 0.905817,-0.8187806 z"
     id="path4775"
     inkscape:connector-curvature="0" />
</svg>
